<?xml version="1.0" standalone="yes"?>
<svg xmlns="http://www.w3.org/2000/svg" width="338" height="165">
<path style="fill:#060403; stroke:none;" d="M0 0L0 164L337 164L337 0L0 0z"/>
<path style="fill:#e8ded7; stroke:none;" d="M124 0L125 1L124 0M337 0L337 164L0 164L0 165L338 165L338 49C338 35.2234 342.306 12.6452 337 0M126 1L125 4L126 4L126 1M127 3L128 4L127 3M128 5L128 8L129 8L128 5M126 6L126 12L122 12L122 13C126.437 12.7948 127.955 10.0104 126 6z"/>
<path style="fill:#060403; stroke:none;" d="M126 10L127 11L126 10M123 12L124 13L123 12z"/>
<path style="fill:#e8ded7; stroke:none;" d="M118.667 13.3333L119.333 13.6667L118.667 13.3333M115.667 14.3333L116.333 14.6667L115.667 14.3333M121 14L122 15L121 14M109 19L105 21L110 17L115 18L115 17L112 17L112 16L114 16L109 19M119 15L120 16L119 15M116.667 16.3333L117.333 16.6667L116.667 16.3333M105 22L104 26L105 26L105 22M102 23L102 29L103 29L102 23M103 30L103 31L106 31L103 30M104 32L104 33L108 34L108 33L104 32M106 35L108 40L111 38L110 41L111 41C111.069 37.306 109.532 35.9731 106 35z"/>
<path style="fill:#060403; stroke:none;" d="M108 36L110 38L108 36z"/>
<path style="fill:#e8ded7; stroke:none;" d="M154 41L154 42L158 42L154 41z"/>
<path style="fill:#a69771; stroke:none;" d="M158 41L158 42L175 42L158 41z"/>
<path style="fill:#e8ded7; stroke:none;" d="M175 41L175 42L179 42L175 41M142.667 42.3333L143.333 42.6667L142.667 42.3333z"/>
<path style="fill:#a69771; stroke:none;" d="M144 42L144 43L148 43L144 42z"/>
<path style="fill:#89533a; stroke:none;" d="M67 89C67.0127 108.146 74.2217 126.844 91 137.441C101.153 143.853 114.331 147.576 126 149.997C173.972 159.948 257.981 155.064 263 92C268.331 91.2127 275.711 89.6278 279.66 85.7222C287.126 78.3381 284.17 67.3309 275 63.3673C268.674 60.6328 262.124 64.1175 256 62.1103C248.106 59.523 240.944 54.4657 233 51.6952C216.929 46.0904 198.936 43.2493 182 42.0895C154.283 40.1915 126.404 43.8737 100 52.3441C92.031 54.9006 85.0368 61.1477 77.2855 63.3318C70.548 65.2302 63.7374 58.4903 56.0147 62.4568C38.8271 71.2844 53.0077 88.671 67 89z"/>
<path style="fill:#a69771; stroke:none;" d="M185 42L185 43L189 43L185 42z"/>
<path style="fill:#e8ded7; stroke:none;" d="M189.667 42.3333L190.333 42.6667L189.667 42.3333M135.667 43.3333L136.333 43.6667L135.667 43.3333z"/>
<path style="fill:#a69771; stroke:none;" d="M137.667 43.3333L138.333 43.6667L137.667 43.3333M194 43L194 44L197 44L194 43z"/>
<path style="fill:#e8ded7; stroke:none;" d="M197 43L198 44L197 43M129 44L130 45L129 44z"/>
<path style="fill:#a69771; stroke:none;" d="M130.667 44.3333L131.333 44.6667L130.667 44.3333M150 44L150 45L153 45L150 44z"/>
<path style="fill:#f5d883; stroke:none;" d="M70 88L72 88C72.3072 73.6549 98.2436 63.3738 111 62.1049C116.317 61.5761 121.704 62.4721 127 61.5563C132.279 60.6435 136.759 57.5699 142 56.3503C151.692 54.095 161.143 49.5558 168 59C174.826 54.0604 182.545 49.0606 188 59C195.66 55.8795 202.307 54.796 208 62C214.594 61.746 220.643 64.3462 227 65.8696C240.006 68.9864 257.534 69.6235 260 86L262 86C261.998 64.0777 239.516 56.0052 221 51.375C183.871 42.0904 142.611 41.9228 106 53.3472C88.5669 58.7872 70 67.8221 70 88z"/>
<path style="fill:#a69771; stroke:none;" d="M157 44L157 45L171 45L157 44M202 44L202 45L205 45L202 44z"/>
<path style="fill:#e8ded7; stroke:none;" d="M205 44L206 45L205 44M124 45L125 46L124 45z"/>
<path style="fill:#a69771; stroke:none;" d="M125.667 45.3333L126.333 45.6667L125.667 45.3333M145.667 45.3333L146.333 45.6667L145.667 45.3333M180 45L180 46L185 46L180 45M208.667 45.3333L209.333 45.6667L208.667 45.3333z"/>
<path style="fill:#e8ded7; stroke:none;" d="M210 45L211 46L210 45M119 46L120 47L119 46z"/>
<path style="fill:#a69771; stroke:none;" d="M120.667 46.3333L121.333 46.6667L120.667 46.3333M138.667 46.3333L139.333 46.6667L138.667 46.3333M190 46L190 47L194 47L190 46M212.667 46.3333L213.333 46.6667L212.667 46.3333z"/>
<path style="fill:#e8ded7; stroke:none;" d="M214 46L215 47L214 46M115 47L116 48L115 47z"/>
<path style="fill:#a69771; stroke:none;" d="M116 47L117 48L116 47M131.667 47.3333L132.333 47.6667L131.667 47.3333M198 47L198 48L201 48L198 47M216.667 47.3333L217.333 47.6667L216.667 47.3333z"/>
<path style="fill:#e8ded7; stroke:none;" d="M218 47L219 48L218 47M111 48L112 49L111 48z"/>
<path style="fill:#a69771; stroke:none;" d="M112.667 48.3333L113.333 48.6667L112.667 48.3333M121 48L121 49L126 49L121 48M206 48L206 49L209 49L206 48M221.667 48.3333L222.333 48.6667L221.667 48.3333z"/>
<path style="fill:#e8ded7; stroke:none;" d="M223 48L224 49L223 48M108 49L109 50L108 49z"/>
<path style="fill:#a69771; stroke:none;" d="M109 49L110 50L109 49M120 49L121 50L120 49M212.667 49.3333L213.333 49.6667L212.667 49.3333M225 49L226 50L225 49z"/>
<path style="fill:#e8ded7; stroke:none;" d="M226 49L227 50L226 49M104 50L105 51L104 50z"/>
<path style="fill:#a69771; stroke:none;" d="M105.667 50.3333L106.333 50.6667L105.667 50.3333M117.667 50.3333L118.333 50.6667L117.667 50.3333M217.667 50.3333L218.333 50.6667L217.667 50.3333M229 50L230 51L229 50z"/>
<path style="fill:#e8ded7; stroke:none;" d="M230 50L231 51L230 50M101 51L102 52L101 51z"/>
<path style="fill:#a69771; stroke:none;" d="M102 51L103 52L102 51M112.667 51.3333L113.333 51.6667L112.667 51.3333M221.667 51.3333L222.333 51.6667L221.667 51.3333M232 51L233 52L232 51z"/>
<path style="fill:#e8ded7; stroke:none;" d="M233 51L234 52L233 51M98 52L99 53L98 52z"/>
<path style="fill:#a69771; stroke:none;" d="M99 52L100 53L99 52M108 52L109 53L108 52M158 52L158 53L161 53L158 52M225 52L226 53L225 52M235 52L236 53L235 52z"/>
<path style="fill:#e8ded7; stroke:none;" d="M95 53L96 54L95 53z"/>
<path style="fill:#a69771; stroke:none;" d="M96 53L97 54L96 53M104.667 53.3333L105.333 53.6667L104.667 53.3333M154.667 53.3333L155.333 53.6667L154.667 53.3333M163 53L164 54L163 53M182.667 53.3333L183.333 53.6667L182.667 53.3333M228 53L229 54L228 53M237 53L238 54L237 53z"/>
<path style="fill:#e8ded7; stroke:none;" d="M238 53L239 54L238 53M93 54L94 55L93 54z"/>
<path style="fill:#a69771; stroke:none;" d="M101.667 54.3333L102.333 54.6667L101.667 54.3333M150 54L151 55L150 54M154 55L154 56L154 61L160 61L162 55L154 55M231 54L232 55L231 54M240 54L241 55L240 54M91 55L92 56L91 55M98.6667 55.3333L99.3333 55.6667L98.6667 55.3333M145.667 55.3333L146.333 55.6667L145.667 55.3333M175 55L173 61L181 63L180 67C184.434 66.9474 187.198 66.8055 188 62L184 57L175 55M186 55L187 56L186 55M234 55L235 56L234 55M242 55L243 56L242 55z"/>
<path style="fill:#e8ded7; stroke:none;" d="M243 55L244 56L243 55z"/>
<path style="fill:#a69771; stroke:none;" d="M89 56L90 57L89 56M96 56L97 57L96 56M141.667 56.3333L142.333 56.6667L141.667 56.3333M151 56L152 57L151 56z"/>
<path style="fill:#f5d883; stroke:none;" d="M146 61C150.875 60.9828 154.164 60.9944 156 56C151.694 56.3788 148.246 57.1162 146 61z"/>
<path style="fill:#e8ded7; stroke:none;" d="M161 56L160 61C163.036 59.9996 163.494 59.1372 163 56L161 56z"/>
<path style="fill:#a69771; stroke:none;" d="M163 56L164 57L163 56M171 56L172 57L171 56M193 56L194 57L193 56M200 56L201 57L200 56M236 56L237 57L236 56M244 56L245 57L244 56z"/>
<path style="fill:#e8ded7; stroke:none;" d="M245 56L246 57L245 56z"/>
<path style="fill:#a69771; stroke:none;" d="M87 57L88 58L87 57M94 57L95 58L94 57M136.667 57.3333L137.333 57.6667L136.667 57.3333M148 57L149 58L148 57z"/>
<path style="fill:#f5d883; stroke:none;" d="M160 57L161 58L160 57z"/>
<path style="fill:#a69771; stroke:none;" d="M167 57L168 58L167 57M170 57L171 58L170 57M187 57L188 58L187 57M191 57L192 58L191 57M202.667 57.3333L203.333 57.6667L202.667 57.3333M239 57L240 58L239 57z"/>
<path style="fill:#e8ded7; stroke:none;" d="M247 57L248 58L247 57M85 58L86 59L85 58z"/>
<path style="fill:#a69771; stroke:none;" d="M92 58L93 59L92 58M146 58L147 59L146 58M164 58L165 59L164 58M169 58L170 59L169 58M189 58L190 59L189 58M190 69C193.194 68.9865 195.271 69.4028 196 66L200 69L202 66L203 69L207 68C203.722 56.2473 190.047 55.595 190 69M241 58L242 59L241 58M248 58L249 59L248 58z"/>
<path style="fill:#e8ded7; stroke:none;" d="M249 58L250 59L249 58M83 59L84 60L83 59z"/>
<path style="fill:#a69771; stroke:none;" d="M90 59L91 60L90 59M137 67L137 66L134 66L135 61C138.708 61 141.723 60.1067 141 63L151 62L151 61L146 59C142.934 59.5691 125.282 64.6412 137 67M168 59L169 60L168 59M243 59L244 60L243 59M250 59L251 60L250 59z"/>
<path style="fill:#e8ded7; stroke:none;" d="M60 60L61 61L60 60z"/>
<path style="fill:#a69771; stroke:none;" d="M61 60L61 61L67 61L61 60z"/>
<path style="fill:#e8ded7; stroke:none;" d="M67 60L68 61L67 60z"/>
<path style="fill:#a69771; stroke:none;" d="M82 60L83 61L82 60M88 60L89 61L88 60M163 60L164 61L163 60M245 60L246 61L245 60M252 60L253 61L252 60M57 61L58 62L57 61M70 61L71 62L70 61z"/>
<path style="fill:#e8ded7; stroke:none;" d="M71 61L72 62L71 61M80 61L81 62L80 61z"/>
<path style="fill:#a69771; stroke:none;" d="M86 61L87 62L86 61M127 61L127 62L130 62L127 61z"/>
<path style="fill:#f5d883; stroke:none;" d="M135 61L135 67L141 61L135 61z"/>
<path style="fill:#e8ded7; stroke:none;" d="M141 61L142 62L141 61z"/>
<path style="fill:#a69771; stroke:none;" d="M211.667 61.3333L212.333 61.6667L211.667 61.3333M247 61L248 62L247 61z"/>
<path style="fill:#e8ded7; stroke:none;" d="M254 61L255 62L254 61M262.667 61.3333L263.333 61.6667L262.667 61.3333z"/>
<path style="fill:#a69771; stroke:none;" d="M264 61L264 62L270 62L264 61z"/>
<path style="fill:#e8ded7; stroke:none;" d="M270.667 61.3333L271.333 61.6667L270.667 61.3333z"/>
<path style="fill:#a69771; stroke:none;" d="M55 62L56 63L55 62M72 62L73 63L72 62z"/>
<path style="fill:#e8ded7; stroke:none;" d="M73 62L74 63L73 62z"/>
<path style="fill:#a69771; stroke:none;" d="M79 62L80 63L79 62M85 62L86 63L85 62M107 62L108 63L107 62M113 62L113 63L120 63L113 62z"/>
<path style="fill:#e8ded7; stroke:none;" d="M135.333 62.6667L135.667 63.3333L135.333 62.6667M140 62L141 63L140 62z"/>
<path style="fill:#a69771; stroke:none;" d="M208 62L209 63L208 62M215 62L216 63L215 62z"/>
<path style="fill:#e8ded7; stroke:none;" d="M256 62L257 63L256 62z"/>
<path style="fill:#a69771; stroke:none;" d="M259.667 62.3333L260.333 62.6667L259.667 62.3333M273 62L274 63L273 62z"/>
<path style="fill:#e8ded7; stroke:none;" d="M274 62L275 63L274 62M53 63L54 64L53 63z"/>
<path style="fill:#a69771; stroke:none;" d="M63 63L63 64L67 64L63 63M74 63L75 64L74 63z"/>
<path style="fill:#e8ded7; stroke:none;" d="M77 63L78 64L77 63z"/>
<path style="fill:#a69771; stroke:none;" d="M83 63L84 64L83 63M105 63L106 64L105 63M139 63L140 64L139 63M143 63L143 64L147 64L143 63M156 63L156 64L159 64L156 63z"/>
<path style="fill:#f5d883; stroke:none;" d="M159 63L160 64L159 63z"/>
<path style="fill:#a69771; stroke:none;" d="M160 63L161 64L160 63M174 63L174 67L174 63M217 63L218 64L217 63M250 63L251 64L250 63M257.667 63.3333L258.333 63.6667L257.667 63.3333M275 63L276 64L275 63z"/>
<path style="fill:#e8ded7; stroke:none;" d="M52 64L53 65L52 64z"/>
<path style="fill:#a69771; stroke:none;" d="M59 64L60 65L59 64z"/>
<path style="fill:#f5d883; stroke:none;" d="M58 70L74 68C69.222 60.19 52.6464 63.8208 51.2438 73.0039C50.3308 78.9815 62.8567 90.8387 65.2485 83.7716C66.2139 80.919 58.1563 74.8026 58 70z"/>
<path style="fill:#a69771; stroke:none;" d="M70 64L71 65L70 64M76 64L77 65L76 64M82 64L83 65L82 64M103 64L104 65L103 64M108 65L108 66L110 67C106.751 68.8063 106.401 70.3829 107 74L108 74L108 69L123 67L123 64L108 65z"/>
<path style="fill:#f5d883; stroke:none;" d="M123 64L123 65L127 65L123 64z"/>
<path style="fill:#a69771; stroke:none;" d="M127 64L128 69L131 68L127 64z"/>
<path style="fill:#e8ded7; stroke:none;" d="M137 64L138 65L137 64z"/>
<path style="fill:#f5d883; stroke:none;" d="M140 67L145 65L142 78L150.133 68.2562L165 72L164 66L155 68L157 64C151.232 64 144.3 62.6094 140 67z"/>
<path style="fill:#e8ded7; stroke:none;" d="M155 68L163 67C160.384 62.9611 157.368 64.5377 155 68z"/>
<path style="fill:#a69771; stroke:none;" d="M162 64L163 65L162 64z"/>
<path style="fill:#e8ded7; stroke:none;" d="M170 66L170 67L175 64L170 66z"/>
<path style="fill:#f5d883; stroke:none;" d="M198 64L199 68L200 68L198 64z"/>
<path style="fill:#a69771; stroke:none;" d="M210 64L208 69L212 70L210 64z"/>
<path style="fill:#e8ded7; stroke:none;" d="M211.667 64.3333L212.333 64.6667L211.667 64.3333z"/>
<path style="fill:#a69771; stroke:none;" d="M213 64L214 65L213 64M220.667 64.3333L221.333 64.6667L220.667 64.3333M251 64L252 65L251 64M263 64L263 65L266 67L271 66L271 65L263 64M277 64L278 65L277 64z"/>
<path style="fill:#e8ded7; stroke:none;" d="M51 65L52 66L51 65z"/>
<path style="fill:#a69771; stroke:none;" d="M102 65L103 66L102 65z"/>
<path style="fill:#e8ded7; stroke:none;" d="M122 65L122 74C126.469 72.1684 127.738 69.7382 128 65L122 65M136 65L137 66L136 65z"/>
<path style="fill:#a69771; stroke:none;" d="M140 65L141 66L140 65z"/>
<path style="fill:#e8ded7; stroke:none;" d="M139 67L140 78L142 78L145 65L139 67z"/>
<path style="fill:#f5d883; stroke:none;" d="M171 65L172 66L171 65z"/>
<path style="fill:#060403; stroke:none;" d="M211 65L216 71L211 65z"/>
<path style="fill:#f5d883; stroke:none;" d="M214 65L215 66L214 65M260 65C262.528 69.3725 268.555 71.8465 273 69L266 87C284.744 86.1414 283.887 61.8631 266 67L260 65z"/>
<path style="fill:#e8ded7; stroke:none;" d="M279 65L280 66L279 65z"/>
<path style="fill:#a69771; stroke:none;" d="M55 66L56 67L55 66M74 66L75 67L74 66M100 66L101 67L100 66M106 66L107 67L106 66z"/>
<path style="fill:#f5d883; stroke:none;" d="M104 70L110 67C106.939 66.182 105.536 67.3603 104 70z"/>
<path style="fill:#a69771; stroke:none;" d="M139 66L140 67L139 66M169 66L170 67L169 66M215 66L221 74L219 68L223 68L223 67L215 66M226 66L226 67L230 67L226 66M273 66L274 67L273 66z"/>
<path style="fill:#f5d883; stroke:none;" d="M280 66L281 67L280 66z"/>
<path style="fill:#a69771; stroke:none;" d="M50 67L51 68L50 67M78 67L79 68L78 67M94 67L95 68L94 67M104 67L105 68L104 67M138 67L139 68L138 67M149 67L149 68L153 68L149 67M164.333 67.6667L164.667 68.3333L164.333 67.6667M171.667 67.3333L172.333 67.6667L171.667 67.3333z"/>
<path style="fill:#e8ded7; stroke:none;" d="M211.333 67.6667L211.667 68.3333L211.333 67.6667z"/>
<path style="fill:#f5d883; stroke:none;" d="M215 67L216 68L215 67z"/>
<path style="fill:#a69771; stroke:none;" d="M230 67L230 68L236 68L236 67L230 67z"/>
<path style="fill:#89533a; stroke:none;" d="M231.667 67.3333L232.333 67.6667L231.667 67.3333z"/>
<path style="fill:#a69771; stroke:none;" d="M260 67L261 68L260 67M269 67L270 68L269 67M281 67L282 68L281 67z"/>
<path style="fill:#e8ded7; stroke:none;" d="M49 68L50 69L49 68z"/>
<path style="fill:#a69771; stroke:none;" d="M68 68L68 69L72 69L68 68M77 68L78 69L77 68M103 68L102 70L103 68M119 68L118 73L122 69L119 68M123.333 68.6667L123.667 69.3333L123.333 68.6667z"/>
<path style="fill:#f5d883; stroke:none;" d="M138 68C133.07 73.4387 130.441 76.5962 129 84L130 85C138.304 82.1998 141.664 76.1622 138 68z"/>
<path style="fill:#a69771; stroke:none;" d="M148 68L149 69L148 68M154 68L155 69L154 68M174.667 68.3333L175.333 68.6667L174.667 68.3333z"/>
<path style="fill:#e8ded7; stroke:none;" d="M215.333 68.6667L215.667 69.3333L215.333 68.6667z"/>
<path style="fill:#f5d883; stroke:none;" d="M219 68L220 69L219 68z"/>
<path style="fill:#060403; stroke:none;" d="M220 68L225 77C226.134 71.9928 225.46 68.8707 220 68z"/>
<path style="fill:#e8ded7; stroke:none;" d="M224 68L226 70L224 68z"/>
<path style="fill:#a69771; stroke:none;" d="M225 68L226 69L225 68M236 69L236 70L242 69L236 69M262 68L263 69L262 68M277 68L278 69L277 68z"/>
<path style="fill:#e8ded7; stroke:none;" d="M282 68L283 69L282 68z"/>
<path style="fill:#a69771; stroke:none;" d="M62 69L63 70L62 69M76 69L77 70L76 69M90 69L91 70L90 69M99.3333 69.6667L99.6667 70.3333L99.3333 69.6667z"/>
<path style="fill:#e8ded7; stroke:none;" d="M103 69C101.433 74.8107 104.862 75.9181 110 77L103 69z"/>
<path style="fill:#a69771; stroke:none;" d="M147 69L145 77L147 77L147 78L145 78L151 81L147 69M165 69L160 72L160 73L163 76L164 76L164 73L169 75L165 69M168 69L169 70L168 69M179 69L179 70L182 70L179 69z"/>
<path style="fill:#e8ded7; stroke:none;" d="M212 69L213 70L212 69z"/>
<path style="fill:#a69771; stroke:none;" d="M226 69L227 73L228 73L226 69M243 69L244 70L243 69M264.667 69.3333L265.333 69.6667L264.667 69.3333M272 69L272 71L274 71L272 69z"/>
<path style="fill:#e8ded7; stroke:none;" d="M48 70L49 71L48 70z"/>
<path style="fill:#a69771; stroke:none;" d="M51 70L52 71L51 70M59 70L60 71L59 70M66 70L66 71L69 71L66 70M75 70L76 71L75 70M110 70L115 74L110 70M127 70L128 71L127 70M136 70L137 71L136 70M150 70L151 71L150 70z"/>
<path style="fill:#e8ded7; stroke:none;" d="M151 70L153 73L151 70z"/>
<path style="fill:#a69771; stroke:none;" d="M152 70L153 71L152 70M155 70L156 71L155 70M174 70L174 71L178 71L174 70z"/>
<path style="fill:#f5d883; stroke:none;" d="M178 70L178 71L186 72L186 70L178 70z"/>
<path style="fill:#a69771; stroke:none;" d="M186.333 70.6667L186.667 71.3333L186.333 70.6667M193 70L194 71L193 70M213 70L214 71L213 70z"/>
<path style="fill:#e8ded7; stroke:none;" d="M214 70L215 71L214 70z"/>
<path style="fill:#a69771; stroke:none;" d="M245 70L246 71L245 70M267.667 70.3333L268.333 70.6667L267.667 70.3333M283 70L284 71L283 70M48 71L49 72L48 71z"/>
<path style="fill:#e8ded7; stroke:none;" d="M61 74L61 76C65.9827 77.0338 67.9358 75.5402 70 71L61 74z"/>
<path style="fill:#a69771; stroke:none;" d="M74 71L75 72L74 71M83 72L83 73L93 73L83 72M101 71L101 74L102 74L101 71M133.667 71.3333L134.333 71.6667L133.667 71.3333M156 71L157 72L156 71M170 71L170 75L175 75L175 74L170 71z"/>
<path style="fill:#f5d883; stroke:none;" d="M171 71L171 74L174 74L174 71L171 71z"/>
<path style="fill:#e8ded7; stroke:none;" d="M174 71C175.68 76.0622 179.928 74.9565 184 73L174 71z"/>
<path style="fill:#a69771; stroke:none;" d="M191 71C191.263 74.4098 191.679 75.9011 195 77L195 76L192 76L191 71z"/>
<path style="fill:#f5d883; stroke:none;" d="M192 71L192 72L199 75L192 71z"/>
<path style="fill:#a69771; stroke:none;" d="M196 71L197 72L196 71M246 71L246 72L250 72L246 71M280 71L281 72L280 71M63 72L64 73L63 72M69 72L70 73L69 72M73 72L74 73L73 72M122 72L123 73L122 72M125 72L126 73L125 72M132 72L133 73L132 72M151 72L152 73L151 72M153 72L154 73L153 72M157.667 72.3333L158.333 72.6667L157.667 72.3333M184 72L185 73L184 72z"/>
<path style="fill:#e8ded7; stroke:none;" d="M192 72L192 76L197 75L197 73L192 72z"/>
<path style="fill:#a69771; stroke:none;" d="M197 72L198 73L197 72M202 72L202 73L210 73L202 72z"/>
<path style="fill:#f5d883; stroke:none;" d="M226 72L227 73L226 72z"/>
<path style="fill:#a69771; stroke:none;" d="M251 72L252 73L251 72z"/>
<path style="fill:#e8ded7; stroke:none;" d="M284 72L285 73L284 72M47 73L48 74L47 73z"/>
<path style="fill:#a69771; stroke:none;" d="M50 73L50 76L51 76L50 73M62 73L63 74L62 73M72 73L73 74L72 73M96 73L96 74L99 74L96 73z"/>
<path style="fill:#f5d883; stroke:none;" d="M152 73L153 74L152 73M164 73L165 74L164 73z"/>
<path style="fill:#e8ded7; stroke:none;" d="M165 73L163 78L167 78L167 73L165 73z"/>
<path style="fill:#a69771; stroke:none;" d="M183 73L184 74L183 73M187.667 73.3333L188.333 73.6667L187.667 73.3333M199.333 73.6667L199.667 74.3333L199.333 73.6667z"/>
<path style="fill:#e8ded7; stroke:none;" d="M204 73L204 74L220 78C215.218 73.5279 210.302 73.0042 204 73z"/>
<path style="fill:#a69771; stroke:none;" d="M213 73L214 74L213 73z"/>
<path style="fill:#e8ded7; stroke:none;" d="M226 73L227 74L226 73z"/>
<path style="fill:#a69771; stroke:none;" d="M250 73L251 74L250 73M253 73L254 74L253 73M260 73L261 74L260 73z"/>
<path style="fill:#e8ded7; stroke:none;" d="M264 73L264 74L267 74L264 73z"/>
<path style="fill:#a69771; stroke:none;" d="M267 73L268 74L267 73M284 73L284 77L285 77L284 73M47 74L48 75L47 74M79 74L80 75L79 74M84.6667 74.3333L85.3333 74.6667L84.6667 74.3333M121 74L120 76L121 74M124 75L124 76L128 79C129.154 75.6027 127.162 74.6763 124 75M131 74L132 75L131 74M156 75L156 76L159 77L159 76C157.04 75.3466 156.446 75 159 75L156 75M181 74L182 75L181 74z"/>
<path style="fill:#f5d883; stroke:none;" d="M187 74L187 76L189 76L189 74L187 74z"/>
<path style="fill:#060403; stroke:none;" d="M192 74L193 75L192 74z"/>
<path style="fill:#f5d883; stroke:none;" d="M205 74L206 75L205 74z"/>
<path style="fill:#a69771; stroke:none;" d="M215 74L216 75L215 74z"/>
<path style="fill:#e8ded7; stroke:none;" d="M221 74L222 75L221 74z"/>
<path style="fill:#a69771; stroke:none;" d="M226 74L227 75L226 74M251 74L252 75L251 74M254 74L255 75L254 74M264 74L265 75L264 74z"/>
<path style="fill:#060403; stroke:none;" d="M265 74L266 78L270 77L265 74z"/>
<path style="fill:#e8ded7; stroke:none;" d="M268 74L269 75L268 74M47 75L48 76L47 75M82 75L82 80L86 75L82 75z"/>
<path style="fill:#a69771; stroke:none;" d="M89 79L90 79L93 76L89 79M102.667 75.3333L103.333 75.6667L102.667 75.3333z"/>
<path style="fill:#f5d883; stroke:none;" d="M121 75L120 79L126 77L121 75M157 75L157 76L160 76L157 75z"/>
<path style="fill:#a69771; stroke:none;" d="M160 75L161 76L160 75z"/>
<path style="fill:#f5d883; stroke:none;" d="M167.333 75.6667L167.667 76.3333L167.333 75.6667z"/>
<path style="fill:#a69771; stroke:none;" d="M196.667 75.3333L197.333 75.6667L196.667 75.3333M217 75L218 76L217 75z"/>
<path style="fill:#e8ded7; stroke:none;" d="M222 75L223 76L222 75M225 75L226 76L225 75z"/>
<path style="fill:#a69771; stroke:none;" d="M252 75L253 76L252 75M255 75L256 76L255 75M261 75L262 76L261 75z"/>
<path style="fill:#e8ded7; stroke:none;" d="M269 75L270 76L269 75z"/>
<path style="fill:#a69771; stroke:none;" d="M62 76L63 77L62 76M67 76L68 77L67 76M70 76L71 77L70 76M76 76L77 77L76 76M81 76L81 79L82 79L81 76M86 76L87 77L86 76z"/>
<path style="fill:#e8ded7; stroke:none;" d="M90 76L91 81L95 77L90 76z"/>
<path style="fill:#a69771; stroke:none;" d="M106 76L107 77L106 76z"/>
<path style="fill:#f5d883; stroke:none;" d="M107 76L108 77L107 76z"/>
<path style="fill:#a69771; stroke:none;" d="M109 77L109 78L117 79L117 77L109 77z"/>
<path style="fill:#e8ded7; stroke:none;" d="M126 76L127 77L126 76z"/>
<path style="fill:#f5d883; stroke:none;" d="M127 76L125 81C128.012 80.3545 128.498 78.6128 127 76z"/>
<path style="fill:#a69771; stroke:none;" d="M130 76L131 77L130 76z"/>
<path style="fill:#f5d883; stroke:none;" d="M163 76L164 77L163 76z"/>
<path style="fill:#a69771; stroke:none;" d="M170 76L167 80L167 81L172 80L171 77L176 80C176.867 76.1401 173.061 76.1002 170 76M187.667 76.3333L188.333 76.6667L187.667 76.3333M209 76L210 77L209 76M218 76L219 77L218 76z"/>
<path style="fill:#e8ded7; stroke:none;" d="M223 76L224 77L223 76z"/>
<path style="fill:#a69771; stroke:none;" d="M225 76L226 77L225 76M253 76L254 77L253 76M256 76L257 77L256 76z"/>
<path style="fill:#e8ded7; stroke:none;" d="M265 76L266 77L265 76z"/>
<path style="fill:#a69771; stroke:none;" d="M65.6667 77.3333L66.3333 77.6667L65.6667 77.3333M69 77L69 85L70 85L69 77z"/>
<path style="fill:#f5d883; stroke:none;" d="M86 77L87 78L86 77M95 77L94 79L95 77z"/>
<path style="fill:#a69771; stroke:none;" d="M95 78L95 79L102 78L95 78M119.333 77.6667L119.667 78.3333L119.333 77.6667M125.667 77.3333L126.333 77.6667L125.667 77.3333M143 77L144 78L143 77M153 77L152 81L165 79L153 77z"/>
<path style="fill:#f5d883; stroke:none;" d="M171 77L174 80L171 77z"/>
<path style="fill:#e8ded7; stroke:none;" d="M174 77C175.989 84.0611 180.599 85.0065 187 83L187 82L174 77z"/>
<path style="fill:#a69771; stroke:none;" d="M180 77L182 81L182 80L182 78L180 77M192 78L192 79L203 78L192 78M212.667 77.3333L213.333 77.6667L212.667 77.3333M228 77L228 82L229 82L228 77M243 77L236 78C237.736 82.091 239.653 82.8573 244 83L243 77M257 77L258 78L257 77M265 77L266 78L265 77z"/>
<path style="fill:#e8ded7; stroke:none;" d="M268 77L269 78L268 77z"/>
<path style="fill:#a69771; stroke:none;" d="M273 77L274 78L273 77z"/>
<path style="fill:#e8ded7; stroke:none;" d="M284 77L285 78L284 77z"/>
<path style="fill:#a69771; stroke:none;" d="M48 78L49 79L48 78M51 78L52 79L51 78M61 78L62 79L61 78M73.3333 78.6667L73.6667 79.3333L73.3333 78.6667M86 78L87 79L86 78z"/>
<path style="fill:#e8ded7; stroke:none;" d="M101 78L101 79L107 80L101 78z"/>
<path style="fill:#a69771; stroke:none;" d="M106 78L107 79L106 78M123 78L124 79L123 78M140.667 78.3333L141.333 78.6667L140.667 78.3333z"/>
<path style="fill:#89533a; stroke:none;" d="M147.667 78.3333L148.333 78.6667L147.667 78.3333z"/>
<path style="fill:#f5d883; stroke:none;" d="M162 78L162 79L166 79L162 78M180 78L180 80L183 80L183 78L180 78z"/>
<path style="fill:#a69771; stroke:none;" d="M183.333 78.6667L183.667 79.3333L183.333 78.6667z"/>
<path style="fill:#e8ded7; stroke:none;" d="M190 79L190 81L206 82C201.35 76.9687 196.163 78.7354 190 79z"/>
<path style="fill:#f5d883; stroke:none;" d="M201 78L201 79L204 82L204 83L210 85C209.154 79.9988 205.77 78.5185 201 78z"/>
<path style="fill:#a69771; stroke:none;" d="M205 78L206 79L205 78M254 78L255 79L254 78M266.667 78.3333L267.333 78.6667L266.667 78.3333M280 78L281 79L280 78M62 79L63 80L62 79z"/>
<path style="fill:#f5d883; stroke:none;" d="M76 79L75 83L76 79z"/>
<path style="fill:#a69771; stroke:none;" d="M77 79L78 80L77 79M103.667 79.3333L104.333 79.6667L103.667 79.3333M120 79L121 80L120 79M125 79L126 80L125 79M139 79L140 80L139 79M143 79L144 80L143 79z"/>
<path style="fill:#e8ded7; stroke:none;" d="M144 79L145 80L144 79z"/>
<path style="fill:#a69771; stroke:none;" d="M207 79L208 80L207 79M258 79L259 80L258 79M262 79L262 83L263 83L262 79M271 79L272 80L271 79M283 79L284 80L283 79M49 80L50 81L49 80M64.6667 80.3333L65.3333 80.6667L64.6667 80.3333M82 80L83 81L82 80M90 80L91 81L90 80M92 80L93 81L92 80M97 80L97 81L100 81L97 80M137 80L138 81L137 80M141 80L142 81L141 80z"/>
<path style="fill:#e8ded7; stroke:none;" d="M134 88L144 80L134 88z"/>
<path style="fill:#89533a; stroke:none;" d="M171.667 80.3333L172.333 80.6667L171.667 80.3333z"/>
<path style="fill:#a69771; stroke:none;" d="M173.667 80.3333L174.333 80.6667L173.667 80.3333M208 80L209 81L208 80z"/>
<path style="fill:#e8ded7; stroke:none;" d="M213 80L218 84L213 80z"/>
<path style="fill:#a69771; stroke:none;" d="M217 80L218 81L217 80z"/>
<path style="fill:#e8ded7; stroke:none;" d="M229 80L229 83L230 83L229 80z"/>
<path style="fill:#a69771; stroke:none;" d="M270 80L271 81L270 80M279 80L280 81L279 80z"/>
<path style="fill:#e8ded7; stroke:none;" d="M283 80L284 81L283 80z"/>
<path style="fill:#a69771; stroke:none;" d="M53 81L54 82L53 81M72 81L72 87L73 87L72 81M86 81L85 83L86 81M95 81L96 82L95 81z"/>
<path style="fill:#f5d883; stroke:none;" d="M96 81L96 82L101 82L96 81z"/>
<path style="fill:#a69771; stroke:none;" d="M101 81L102 82L101 81M126.667 81.3333L127.333 81.6667L126.667 81.3333M136 81L137 82L136 81M164 81L164 82L168 84L164 81z"/>
<path style="fill:#f5d883; stroke:none;" d="M166 81L173 88L172 81L166 81z"/>
<path style="fill:#a69771; stroke:none;" d="M172 81L173 82L172 81M175 81L176 82L175 81M182 81L182 82L188 83L182 81M194 81L194 82L198 82L194 81z"/>
<path style="fill:#f5d883; stroke:none;" d="M217 81L219 83L219 84L217 86L222 86L217 81z"/>
<path style="fill:#a69771; stroke:none;" d="M219 81L220 82L219 81M230.333 81.6667L230.667 82.3333L230.333 81.6667M255 81L255 86L256 86L255 81M266.667 81.3333L267.333 81.6667L266.667 81.3333z"/>
<path style="fill:#e8ded7; stroke:none;" d="M50 82L51 83L50 82z"/>
<path style="fill:#a69771; stroke:none;" d="M54 82L55 83L54 82M77 82L78 83L77 82z"/>
<path style="fill:#e8ded7; stroke:none;" d="M86 82L90 86L86 82z"/>
<path style="fill:#a69771; stroke:none;" d="M88 82L89 83L88 82M97.6667 82.3333L98.3333 82.6667L97.6667 82.3333M108.667 82.3333L109.333 82.6667L108.667 82.3333z"/>
<path style="fill:#e8ded7; stroke:none;" d="M110 82L110 83L116 83L110 82z"/>
<path style="fill:#a69771; stroke:none;" d="M116.667 82.3333L117.333 82.6667L116.667 82.3333M135 82L136 83L135 82M138 82L139 83L138 82z"/>
<path style="fill:#e8ded7; stroke:none;" d="M172 82L171 83L174 91C177.771 87.2599 176.104 84.5679 172 82z"/>
<path style="fill:#f5d883; stroke:none;" d="M176 82L177 83L176 82z"/>
<path style="fill:#a69771; stroke:none;" d="M203 82L204 83L203 82M210 82L210 85L211 85L210 82z"/>
<path style="fill:#f5d883; stroke:none;" d="M213 82L214 83L213 82z"/>
<path style="fill:#a69771; stroke:none;" d="M221 82L222 83L221 82M259 82L260 83L259 82M278 82L279 83L278 82z"/>
<path style="fill:#e8ded7; stroke:none;" d="M282 82L283 83L282 82M51 83L52 84L51 83z"/>
<path style="fill:#a69771; stroke:none;" d="M66 83L63 86L63 87L66 83M75.6667 83.3333L76.3333 83.6667L75.6667 83.3333M80 83L79 87L80 87L80 83z"/>
<path style="fill:#e8ded7; stroke:none;" d="M105 83L106 84L105 83z"/>
<path style="fill:#060403; stroke:none;" d="M103 88L115 90L115 95L97 94C97.0405 105.848 104.621 106.93 115 108.282C119.239 108.834 126.534 110.496 128.228 104.941C129.307 101.401 131.451 90.2606 129.242 87.2785C124.579 80.9826 105.934 80.3308 103 88z"/>
<path style="fill:#e8ded7; stroke:none;" d="M121 83L122 84L121 83z"/>
<path style="fill:#a69771; stroke:none;" d="M122.667 83.3333L123.333 83.6667L122.667 83.3333M134 83L135 84L134 83M137 83L138 84L137 83M140 83L141 84L140 83M150 83L150 84L160 84L150 83z"/>
<path style="fill:#f5d883; stroke:none;" d="M174 83L175 84L174 83z"/>
<path style="fill:#a69771; stroke:none;" d="M177 83L178 84L177 83M185 83L186 84L185 83M204 83L204 84L207 84L204 83M218 83L219 84L218 83M222.333 83.6667L222.667 84.3333L222.333 83.6667M281 83L282 84L281 83z"/>
<path style="fill:#e8ded7; stroke:none;" d="M52 84L53 85L52 84z"/>
<path style="fill:#a69771; stroke:none;" d="M57 84L58 85L57 84z"/>
<path style="fill:#e8ded7; stroke:none;" d="M80 84L81 89L82 89L82 84L80 84z"/>
<path style="fill:#a69771; stroke:none;" d="M82 84L83 85L82 84z"/>
<path style="fill:#f5d883; stroke:none;" d="M86 84L87 85L86 84z"/>
<path style="fill:#a69771; stroke:none;" d="M90.3333 84.6667L90.6667 85.3333L90.3333 84.6667M94 84L95 87L96 87L95 85L98 86L94 84z"/>
<path style="fill:#e8ded7; stroke:none;" d="M125 84L126 85L125 84z"/>
<path style="fill:#a69771; stroke:none;" d="M126 84L127 85L126 84M129 84L131 88L132 85L129 86L129 84M132 84L133 85L132 84M136 84L137 85L136 84M139 84L140 85L139 84M145 84L146 85L145 84z"/>
<path style="fill:#e8ded7; stroke:none;" d="M146 84L146 85L152 85L146 84z"/>
<path style="fill:#060403; stroke:none;" d="M152 84.4259C142.218 85.7103 122.78 98.3337 136.228 109.436C141.718 113.968 155.329 112.703 162 111.812C171.517 110.54 175.622 100.169 170.721 92.0934C166.974 85.9176 158.77 83.537 152 84.4259z"/>
<path style="fill:#e8ded7; stroke:none;" d="M159 84L160 85L159 84z"/>
<path style="fill:#a69771; stroke:none;" d="M178 84L179 85L178 84M182.667 84.3333L183.333 84.6667L182.667 84.3333M190 84L190 85L200 85L190 84M208 84L209 85L208 84M215 84L216 86L217 86L218 84L215 84M265 84L265 87L266 87L265 84M276 84L277 85L276 84M54 85L55 86L54 85M60.6667 85.3333L61.3333 85.6667L60.6667 85.3333M87 85L88 86L87 85z"/>
<path style="fill:#f5d883; stroke:none;" d="M95.6667 85.3333L96.3333 85.6667L95.6667 85.3333z"/>
<path style="fill:#e8ded7; stroke:none;" d="M103 85L104 86L103 85z"/>
<path style="fill:#89533a; stroke:none;" d="M129.667 85.3333L130.333 85.6667L129.667 85.3333z"/>
<path style="fill:#a69771; stroke:none;" d="M135 85L136 86L135 85z"/>
<path style="fill:#e8ded7; stroke:none;" d="M144 85L145 86L144 85z"/>
<path style="fill:#a69771; stroke:none;" d="M162 85L163 86L162 85M180 85L181 86L180 85M186 85L187 86L186 85z"/>
<path style="fill:#e8ded7; stroke:none;" d="M187 85L188 86L187 85z"/>
<path style="fill:#060403; stroke:none;" d="M214 99C208.468 97.9035 200.238 97.3133 205 90L207 95C212.032 92.1897 209.633 88.1301 204.995 86.0895C200.236 83.9954 191.916 84.3148 187 85.8002C178.613 88.3342 169.549 102.061 178.228 109.347C183.551 113.815 205.356 112.203 210.437 107.4C212.556 105.398 213.142 101.676 214 99z"/>
<path style="fill:#e8ded7; stroke:none;" d="M204 85L205 86L204 85z"/>
<path style="fill:#a69771; stroke:none;" d="M205 85L206 86L205 85M274 85L275 86L274 85z"/>
<path style="fill:#e8ded7; stroke:none;" d="M280 85L281 86L280 85z"/>
<path style="fill:#a69771; stroke:none;" d="M56 86L57 87L56 86M101 86L102 87L101 86z"/>
<path style="fill:#e8ded7; stroke:none;" d="M102 86C97.708 89.6686 96.2558 93.4149 96 99L97 99L97 94L108 94L102 86z"/>
<path style="fill:#a69771; stroke:none;" d="M134 86L135 87L134 86M141 86L142 87L141 86z"/>
<path style="fill:#e8ded7; stroke:none;" d="M164 86L165 87L164 86z"/>
<path style="fill:#a69771; stroke:none;" d="M184 86L185 87L184 86z"/>
<path style="fill:#e8ded7; stroke:none;" d="M206 86L207 87L206 86z"/>
<path style="fill:#a69771; stroke:none;" d="M217 86L218 87L217 86M220 86L221 87L220 86M260.667 86.3333L261.333 86.6667L260.667 86.3333M271 86L272 87L271 86z"/>
<path style="fill:#e8ded7; stroke:none;" d="M279 86L280 87L279 86z"/>
<path style="fill:#a69771; stroke:none;" d="M58 87L59 88L58 87M133 87L134 88L133 87M135 87L136 88L135 87z"/>
<path style="fill:#e8ded7; stroke:none;" d="M140 87L141 88L140 87z"/>
<path style="fill:#a69771; stroke:none;" d="M166 87L167 88L166 87M171 87L172 88L171 87M182 87L183 88L182 87z"/>
<path style="fill:#e8ded7; stroke:none;" d="M207 87L208 88L207 87z"/>
<path style="fill:#f5d883; stroke:none;" d="M213 87L215 89L213 87z"/>
<path style="fill:#a69771; stroke:none;" d="M214 87L215 88L214 87M254 87L255 88L254 87M259 87L260 88L259 87M266.667 87.3333L267.333 87.6667L266.667 87.3333z"/>
<path style="fill:#e8ded7; stroke:none;" d="M278 87L279 88L278 87z"/>
<path style="fill:#a69771; stroke:none;" d="M60 88L61 89L60 88M71.3333 88.6667L71.6667 89.3333L71.3333 88.6667M73.3333 88.6667L73.6667 89.3333L73.3333 88.6667M80 88L81 89L80 88M85 89L85 90L91 89L88 92C92.5777 93.0396 90.7848 87.4595 85 89z"/>
<path style="fill:#e8ded7; stroke:none;" d="M130 88L131 89L130 88z"/>
<path style="fill:#a69771; stroke:none;" d="M134 88L135 89L134 88M138 88L139 89L138 88z"/>
<path style="fill:#e8ded7; stroke:none;" d="M167 88L168 89L167 88z"/>
<path style="fill:#a69771; stroke:none;" d="M172 88L173 89L172 88z"/>
<path style="fill:#e8ded7; stroke:none;" d="M181 88L182 89L181 88z"/>
<path style="fill:#a69771; stroke:none;" d="M209 88L210 89L209 88M213 88L214 89L213 88M215 88L214 90L216 90L215 88M275 88L276 89L275 88z"/>
<path style="fill:#e8ded7; stroke:none;" d="M276 88L277 89L276 88M63.6667 89.3333L64.3333 89.6667L63.6667 89.3333z"/>
<path style="fill:#a69771; stroke:none;" d="M65 89L66 92L67 92L67 89L65 89z"/>
<path style="fill:#e8ded7; stroke:none;" d="M86 89L91 92L91 89L86 89z"/>
<path style="fill:#a69771; stroke:none;" d="M94 89L91 96C94.3714 95.2812 95.4803 91.9804 94 89M102 89L103 90L102 89z"/>
<path style="fill:#89533a; stroke:none;" d="M103 89L102 90L102 91L102 92L105 89L103 89z"/>
<path style="fill:#a69771; stroke:none;" d="M131.333 89.6667L131.667 90.3333L131.333 89.6667M133 89L134 90L133 89z"/>
<path style="fill:#e8ded7; stroke:none;" d="M137 89L138 90L137 89z"/>
<path style="fill:#a69771; stroke:none;" d="M176 89L177 90L176 89M210 89L211 90L210 89M253 89L254 90L253 89M258 89L255 93L258 89M272 89L273 90L272 89z"/>
<path style="fill:#e8ded7; stroke:none;" d="M273 89L274 90L273 89z"/>
<path style="fill:#a69771; stroke:none;" d="M72 90L73 91L72 90M76 93L77 93L79 92C77.1883 90.4993 76.9776 90.8421 76 93M97 90L98 91L97 90z"/>
<path style="fill:#f5d883; stroke:none;" d="M105.333 90.6667L105.667 91.3333L105.333 90.6667z"/>
<path style="fill:#89533a; stroke:none;" d="M107 90C107.825 93.8694 111.438 93.8204 115 94L115 90L114 90L107 90z"/>
<path style="fill:#e8ded7; stroke:none;" d="M117 90L118 91L117 90z"/>
<path style="fill:#a69771; stroke:none;" d="M117 93L118 93L120 91L117 93z"/>
<path style="fill:#e8ded7; stroke:none;" d="M120 90L122 92L120 90z"/>
<path style="fill:#a69771; stroke:none;" d="M173 90L174 91L173 90M175 90L176 91L175 90z"/>
<path style="fill:#e8ded7; stroke:none;" d="M204 90L202 93L206 92L204 90z"/>
<path style="fill:#f5d883; stroke:none;" d="M211 90L212 91L211 90z"/>
<path style="fill:#a69771; stroke:none;" d="M245 95L248 98L254 93L250 92L252 91L245 95M269 90L270 91L269 90z"/>
<path style="fill:#e8ded7; stroke:none;" d="M270 90L271 91L270 90M77 91L79 94L77 91z"/>
<path style="fill:#a69771; stroke:none;" d="M86 91L87 92L86 91M101 91L102 92L101 91M109 91L110 92L109 91z"/>
<path style="fill:#e8ded7; stroke:none;" d="M112 91L113 92L112 91z"/>
<path style="fill:#a69771; stroke:none;" d="M113 91L114 92L113 91z"/>
<path style="fill:#89533a; stroke:none;" d="M118 91L118 95L121 91L118 91z"/>
<path style="fill:#e8ded7; stroke:none;" d="M135 91L136 92L135 91M170 91L171 92L170 91z"/>
<path style="fill:#a69771; stroke:none;" d="M174 91L175 92L174 91z"/>
<path style="fill:#e8ded7; stroke:none;" d="M178 91L179 92L178 91z"/>
<path style="fill:#89533a; stroke:none;" d="M204 91C202.98 93.8991 202.772 95.3084 206 96L204 91z"/>
<path style="fill:#e8ded7; stroke:none;" d="M211 91L206 94C206.23 98.9861 209.741 98.7262 214 99L212 106L213 106C215.632 100.531 215.752 95.1937 211 91z"/>
<path style="fill:#a69771; stroke:none;" d="M212 91L213 92L212 91M266 91L267 92L266 91z"/>
<path style="fill:#e8ded7; stroke:none;" d="M267 91L268 92L267 91M66 92L66 95L67 95L66 92z"/>
<path style="fill:#a69771; stroke:none;" d="M102 92L102 93L105 93L102 92z"/>
<path style="fill:#e8ded7; stroke:none;" d="M115.333 92.6667L115.667 93.3333L115.333 92.6667z"/>
<path style="fill:#f5d883; stroke:none;" d="M121 92L122 93L121 92z"/>
<path style="fill:#a69771; stroke:none;" d="M130 92L131 93L130 92M134 92L135 93L134 92z"/>
<path style="fill:#e8ded7; stroke:none;" d="M159 92L160 93L159 92z"/>
<path style="fill:#a69771; stroke:none;" d="M171 92L172 93L171 92M177 92L178 93L177 92M205 92L206 93L205 92M213 92L214 93L213 92M263 92L264 93L263 92z"/>
<path style="fill:#e8ded7; stroke:none;" d="M264 92L265 93L264 92z"/>
<path style="fill:#f5d883; stroke:none;" d="M77 93L78 94L77 93z"/>
<path style="fill:#a69771; stroke:none;" d="M82 93L82 96L83 96L82 93z"/>
<path style="fill:#e8ded7; stroke:none;" d="M83 93L84 94L83 93z"/>
<path style="fill:#a69771; stroke:none;" d="M84 93L85 94L84 93M96 93L97 94L96 93M108 93L108 94L111 94L108 93z"/>
<path style="fill:#e8ded7; stroke:none;" d="M117 93L118 94L117 93M121 93L118 95C120.085 98.4009 122.098 98.8731 126 99L126 95L121 93z"/>
<path style="fill:#a69771; stroke:none;" d="M141 93L142 94L141 93z"/>
<path style="fill:#e8ded7; stroke:none;" d="M142 93L143 94L142 93z"/>
<path style="fill:#a69771; stroke:none;" d="M157 93L156 95L157 93z"/>
<path style="fill:#89533a; stroke:none;" d="M156 97L161 98L160 93L156 97z"/>
<path style="fill:#a69771; stroke:none;" d="M197 93L198 94L197 93z"/>
<path style="fill:#e8ded7; stroke:none;" d="M198 93L199 94L198 93z"/>
<path style="fill:#a69771; stroke:none;" d="M202 93L202 96L203 96L202 93M227 93L227 96L229 95L229 94L227 93z"/>
<path style="fill:#e8ded7; stroke:none;" d="M263 93L264 94L263 93z"/>
<path style="fill:#f5d883; stroke:none;" d="M70 94C70.1924 117.235 86.5409 133.648 107 141.985C116.747 145.958 126.682 147.035 137 148.285C177.899 153.243 256.555 151.804 259 95C199.391 122.831 128.659 124.262 70 94z"/>
<path style="fill:#a69771; stroke:none;" d="M71 94L72 95L71 94M78 94L79 95L78 94z"/>
<path style="fill:#f5d883; stroke:none;" d="M83 94L83 97L86 97L86 94L83 94z"/>
<path style="fill:#e8ded7; stroke:none;" d="M114 94L115 95L114 94z"/>
<path style="fill:#a69771; stroke:none;" d="M120 94L121 95L120 94M129.333 94.6667L129.667 95.3333L129.333 94.6667M133 94L134 95L133 94z"/>
<path style="fill:#e8ded7; stroke:none;" d="M140 94L141 95L140 94z"/>
<path style="fill:#89533a; stroke:none;" d="M141 94L140 99L154 95L152 97L141 94z"/>
<path style="fill:#e8ded7; stroke:none;" d="M144 94L145 95L144 94M147.667 94.3333L148.333 94.6667L147.667 94.3333z"/>
<path style="fill:#a69771; stroke:none;" d="M149 94L150 95L149 94z"/>
<path style="fill:#e8ded7; stroke:none;" d="M153 94L154 95L153 94z"/>
<path style="fill:#a69771; stroke:none;" d="M160 94L161 95L160 94M172.333 94.6667L172.667 95.3333L172.333 94.6667z"/>
<path style="fill:#e8ded7; stroke:none;" d="M176 94L177 95L176 94M186 94L182 102L191 98L187 99L186 94z"/>
<path style="fill:#a69771; stroke:none;" d="M187 94L187 98L188 98L189 94L187 94z"/>
<path style="fill:#e8ded7; stroke:none;" d="M189 94L191 96L189 94M192 94L193 95L192 94z"/>
<path style="fill:#a69771; stroke:none;" d="M192 95L192 96L196 95L192 95z"/>
<path style="fill:#89533a; stroke:none;" d="M193 95C195.019 104.244 204.006 93.2936 193 95z"/>
<path style="fill:#a69771; stroke:none;" d="M199 94L200 95L199 94M214 94L215 95L214 94z"/>
<path style="fill:#f5d883; stroke:none;" d="M250.667 94.3333L251.333 94.6667L250.667 94.3333z"/>
<path style="fill:#a69771; stroke:none;" d="M258 94L259 95L258 94z"/>
<path style="fill:#e8ded7; stroke:none;" d="M86.3333 95.6667L86.6667 96.3333L86.3333 95.6667z"/>
<path style="fill:#a69771; stroke:none;" d="M87 95L88 96L87 95z"/>
<path style="fill:#e8ded7; stroke:none;" d="M133 95L134 96L133 95z"/>
<path style="fill:#a69771; stroke:none;" d="M141 95L142 96L141 95M145 95L146 96L145 95M150 95L151 96L150 95z"/>
<path style="fill:#e8ded7; stroke:none;" d="M155 95L156 96L155 95z"/>
<path style="fill:#89533a; stroke:none;" d="M188 95L187 99L190 95L188 95z"/>
<path style="fill:#e8ded7; stroke:none;" d="M200 95L201 96L200 95z"/>
<path style="fill:#f5d883; stroke:none;" d="M226 98L232 99L232 96L226 98z"/>
<path style="fill:#a69771; stroke:none;" d="M230 95L231 96L230 95z"/>
<path style="fill:#89533a; stroke:none;" d="M249.667 95.3333L250.333 95.6667L249.667 95.3333z"/>
<path style="fill:#a69771; stroke:none;" d="M257 95L258 96L257 95M140 96L141 97L140 96M151 96L152 97L151 96z"/>
<path style="fill:#e8ded7; stroke:none;" d="M154 96L155 97L154 96M161 96L158 98L158 99C162.037 102.332 165.972 103.278 167 97L161 96M172 96L173 97L172 96z"/>
<path style="fill:#a69771; stroke:none;" d="M175 96L176 97L175 96M190.333 96.6667L190.667 97.3333L190.333 96.6667z"/>
<path style="fill:#e8ded7; stroke:none;" d="M192 96L193 97L192 96z"/>
<path style="fill:#a69771; stroke:none;" d="M200 96L201 97L200 96z"/>
<path style="fill:#e8ded7; stroke:none;" d="M203 96L204 97L203 96z"/>
<path style="fill:#a69771; stroke:none;" d="M204 96L205 97L204 96M232 96L233 97L232 96M262.333 96.6667L262.667 97.3333L262.333 96.6667M84.6667 97.3333L85.3333 97.6667L84.6667 97.3333z"/>
<path style="fill:#e8ded7; stroke:none;" d="M128 97L128 103L129 103L128 97M136 98L136 102C139.878 101.875 142.072 101.498 144 98L140 99L140 97L136 98z"/>
<path style="fill:#a69771; stroke:none;" d="M143 97L143 98L146 98L143 97M153 97L154 98L153 97z"/>
<path style="fill:#e8ded7; stroke:none;" d="M156 97L157 98L156 97z"/>
<path style="fill:#a69771; stroke:none;" d="M157 97L158 98L157 97z"/>
<path style="fill:#e8ded7; stroke:none;" d="M175 97L176 98L175 97M200 97L201 98L200 97z"/>
<path style="fill:#a69771; stroke:none;" d="M215 97L215 101L216 101L215 97M225 97L226 98L225 97M231 97L232 98L231 97M245 97L246 98L245 97M254 97L255 98L254 97M67 98L67 101L68 101L67 98M76 98L77 99L76 98M88.6667 98.3333L89.3333 98.6667L88.6667 98.3333M132 98L132 104L133 104L132 98z"/>
<path style="fill:#e8ded7; stroke:none;" d="M147.667 98.3333L148.333 98.6667L147.667 98.3333z"/>
<path style="fill:#a69771; stroke:none;" d="M149 98L149 99L152 99L149 98z"/>
<path style="fill:#e8ded7; stroke:none;" d="M152 98L153 99L152 98z"/>
<path style="fill:#a69771; stroke:none;" d="M193 98L194 99L193 98M199 98L200 99L199 98M227 98L227 99L231 99L227 98M252 98L253 99L252 98z"/>
<path style="fill:#e8ded7; stroke:none;" d="M262 98L263 99L262 98z"/>
<path style="fill:#a69771; stroke:none;" d="M77 99L78 100L77 99z"/>
<path style="fill:#f5d883; stroke:none;" d="M87 99L88 100L87 99z"/>
<path style="fill:#e8ded7; stroke:none;" d="M88 99L88 101L91 101L91 99L88 99z"/>
<path style="fill:#f5d883; stroke:none;" d="M91 99L92 100L91 99z"/>
<path style="fill:#a69771; stroke:none;" d="M96 99L97 100L96 99z"/>
<path style="fill:#e8ded7; stroke:none;" d="M193 99L194 100L193 99z"/>
<path style="fill:#a69771; stroke:none;" d="M198 99L199 100L198 99M87 100L88 101L87 100M91 100L92 101L91 100z"/>
<path style="fill:#e8ded7; stroke:none;" d="M195.667 100.333L196.333 100.667L195.667 100.333z"/>
<path style="fill:#a69771; stroke:none;" d="M258 100L259 101L258 100z"/>
<path style="fill:#e8ded7; stroke:none;" d="M67 101L68 102L67 101z"/>
<path style="fill:#a69771; stroke:none;" d="M70.3333 101.667L70.6667 102.333L70.3333 101.667M81 101L82 102L81 101M89 101L90 102L89 101M245 101L246 102L245 101M261 101L262 102L261 101M83 102L84 103L83 102M97 102L98 103L97 102z"/>
<path style="fill:#e8ded7; stroke:none;" d="M172 102L173 103L172 102z"/>
<path style="fill:#a69771; stroke:none;" d="M244 102L245 103L244 102z"/>
<path style="fill:#e8ded7; stroke:none;" d="M261 102L262 103L261 102M76 103L77 112L83 112C83.7962 106.048 82.1446 103.204 76 103M98 103L99 104L98 103z"/>
<path style="fill:#a69771; stroke:none;" d="M172.333 103.667L172.667 104.333L172.333 103.667M214 103L215 104L214 103M242 103L243 104L242 103M68.3333 104.667L68.6667 105.333L68.3333 104.667M88 104L89 105L88 104M129.333 104.667L129.667 105.333L129.333 104.667M260 104L261 105L260 104M71 105L72 106L71 105z"/>
<path style="fill:#060403; stroke:none;" d="M77 105L79 110L81 110C81.1385 106.558 80.4025 105.593 77 105z"/>
<path style="fill:#a69771; stroke:none;" d="M91 105L92 106L91 105M100 105L101 106L100 105z"/>
<path style="fill:#e8ded7; stroke:none;" d="M101 105L102 106L101 105z"/>
<path style="fill:#a69771; stroke:none;" d="M237 105L238 106L237 105z"/>
<path style="fill:#e8ded7; stroke:none;" d="M260 105L261 106L260 105z"/>
<path style="fill:#a69771; stroke:none;" d="M94 106L95 107L94 106M104 106L105 107L104 106z"/>
<path style="fill:#e8ded7; stroke:none;" d="M105 106L106 107L105 106M128 106L129 107L128 106M133 106L134 107L133 106M171 106L172 107L171 106M175 106L176 107L175 106z"/>
<path style="fill:#a69771; stroke:none;" d="M212 106L213 107L212 106M97 107L98 108L97 107z"/>
<path style="fill:#e8ded7; stroke:none;" d="M108 107L109 108L108 107M127 107L128 108L127 107z"/>
<path style="fill:#a69771; stroke:none;" d="M130 107L131 108L130 107M133 107L134 108L133 107M171 107L172 108L171 107M175 107L176 108L175 107M211 107L212 108L211 107M231 107L232 108L231 107M69 108L70 109L69 108M72 108L73 109L72 108M101 108L102 109L101 108M110 108L110 109L113 109L110 108z"/>
<path style="fill:#f5d883; stroke:none;" d="M113 108L114 109L113 108z"/>
<path style="fill:#e8ded7; stroke:none;" d="M114 108L114 109L117 109L114 108z"/>
<path style="fill:#a69771; stroke:none;" d="M126 108L122 109L122 110L126 108M170 108L171 109L170 108M176 108L177 109L176 108z"/>
<path style="fill:#e8ded7; stroke:none;" d="M210 108L211 109L210 108z"/>
<path style="fill:#a69771; stroke:none;" d="M227 108L228 109L227 108M256 108L257 109L256 108M259 108L260 109L259 108z"/>
<path style="fill:#e8ded7; stroke:none;" d="M69 109L70 110L69 109z"/>
<path style="fill:#a69771; stroke:none;" d="M104 109L105 110L104 109z"/>
<path style="fill:#e8ded7; stroke:none;" d="M168 109L169 110L168 109z"/>
<path style="fill:#a69771; stroke:none;" d="M177 109L178 110L177 109z"/>
<path style="fill:#e8ded7; stroke:none;" d="M204.667 109.333L205.333 109.667L204.667 109.333z"/>
<path style="fill:#a69771; stroke:none;" d="M206 109L206 110L209 110L206 109M222 109L223 110L222 109z"/>
<path style="fill:#e8ded7; stroke:none;" d="M259 109L260 110L259 109z"/>
<path style="fill:#a69771; stroke:none;" d="M73 110L74 111L73 110M108.667 110.333L109.333 110.667L108.667 110.333M167 110L168 111L167 110z"/>
<path style="fill:#e8ded7; stroke:none;" d="M179 110L180 111L179 110M197.667 110.333L198.333 110.667L197.667 110.333z"/>
<path style="fill:#a69771; stroke:none;" d="M199 110L199 111L202 111L199 110M216.667 110.333L217.333 110.667L216.667 110.333M255 110L256 111L255 110M70 111L71 112L70 111M113 111L114 112L113 111M137.667 111.333L138.333 111.667L137.667 111.333z"/>
<path style="fill:#e8ded7; stroke:none;" d="M139.667 111.333L140.333 111.667L139.667 111.333M164 111L165 112L164 111z"/>
<path style="fill:#a69771; stroke:none;" d="M165 111L166 112L165 111M180 111L181 112L180 111z"/>
<path style="fill:#e8ded7; stroke:none;" d="M181 111L182 112L181 111M189.667 111.333L190.333 111.667L189.667 111.333z"/>
<path style="fill:#a69771; stroke:none;" d="M191 111L191 112L194 112L191 111M209.667 111.333L210.333 111.667L209.667 111.333M258 111L259 112L258 111z"/>
<path style="fill:#e8ded7; stroke:none;" d="M70 112L71 113L70 112z"/>
<path style="fill:#a69771; stroke:none;" d="M119.667 112.333L120.333 112.667L119.667 112.333M146 112L146 113L159 113L146 112M183.667 112.333L184.333 112.667L183.667 112.333M204 112L204 113L208 113L204 112M74 113L75 114L74 113M126 113L126 114L129 114L126 113M200.667 113.333L201.333 113.667L200.667 113.333M254 113L255 114L254 113M71 114L72 115L71 114z"/>
<path style="fill:#e8ded7; stroke:none;" d="M84 114L86 116L84 114z"/>
<path style="fill:#a69771; stroke:none;" d="M140 114L140 115L147 115L140 114M194 114L194 115L197 115L194 114z"/>
<path style="fill:#e8ded7; stroke:none;" d="M257 114L258 115L257 114z"/>
<path style="fill:#a69771; stroke:none;" d="M75 115L76 116L75 115z"/>
<path style="fill:#060403; stroke:none;" d="M83 115C83.3148 120.819 85.4916 124.764 91 127C90.2567 121.887 87.6316 117.399 83 115z"/>
<path style="fill:#a69771; stroke:none;" d="M158 115L158 116L191 116L158 115M72 116L73 117L72 116z"/>
<path style="fill:#e8ded7; stroke:none;" d="M82.3333 116.667L82.6667 117.333L82.3333 116.667z"/>
<path style="fill:#a69771; stroke:none;" d="M253 116L254 117L253 116M256 116L257 117L256 116z"/>
<path style="fill:#e8ded7; stroke:none;" d="M72 117L73 118L72 117z"/>
<path style="fill:#a69771; stroke:none;" d="M76 117L77 118L76 117M73 118L74 119L73 118z"/>
<path style="fill:#e8ded7; stroke:none;" d="M87 118L88 119L87 118z"/>
<path style="fill:#a69771; stroke:none;" d="M255 118L256 119L255 118z"/>
<path style="fill:#e8ded7; stroke:none;" d="M73 119L74 120L73 119z"/>
<path style="fill:#a69771; stroke:none;" d="M77 119L78 120L77 119M251 119L252 120L251 119M74 120L75 121L74 120z"/>
<path style="fill:#e8ded7; stroke:none;" d="M83 120L84 121L83 120M88 120L89 121L88 120z"/>
<path style="fill:#a69771; stroke:none;" d="M250 120L251 121L250 120z"/>
<path style="fill:#e8ded7; stroke:none;" d="M254 120L255 121L254 120z"/>
<path style="fill:#a69771; stroke:none;" d="M78 121L79 122L78 121M253 121L254 122L253 121z"/>
<path style="fill:#e8ded7; stroke:none;" d="M75 122L76 123L75 122M84 122L85 123L84 122z"/>
<path style="fill:#a69771; stroke:none;" d="M76 123L77 124L76 123z"/>
<path style="fill:#e8ded7; stroke:none;" d="M85 123L86 124L85 123z"/>
<path style="fill:#a69771; stroke:none;" d="M248 123L249 124L248 123z"/>
<path style="fill:#e8ded7; stroke:none;" d="M252 123L253 124L252 123z"/>
<path style="fill:#a69771; stroke:none;" d="M80 124L81 125L80 124z"/>
<path style="fill:#e8ded7; stroke:none;" d="M91 124L91 128L92 128L91 124z"/>
<path style="fill:#a69771; stroke:none;" d="M247 124L248 125L247 124M251 124L252 125L251 124z"/>
<path style="fill:#e8ded7; stroke:none;" d="M77 125L78 126L77 125z"/>
<path style="fill:#a69771; stroke:none;" d="M81 125L82 126L81 125z"/>
<path style="fill:#e8ded7; stroke:none;" d="M87 125L88 126L87 125z"/>
<path style="fill:#a69771; stroke:none;" d="M246 125L247 126L246 125M78 126L79 127L78 126M82 126L83 127L82 126M245 126L246 127L245 126M79 127L80 128L79 127M83 127L84 128L83 127M244 127L245 128L244 127z"/>
<path style="fill:#e8ded7; stroke:none;" d="M249 127L250 128L249 127z"/>
<path style="fill:#a69771; stroke:none;" d="M80 128L81 129L80 128M84 128L85 129L84 128M243 128L244 129L243 128z"/>
<path style="fill:#e8ded7; stroke:none;" d="M248 128L249 129L248 128z"/>
<path style="fill:#a69771; stroke:none;" d="M81 129L82 130L81 129M242 129L243 130L242 129M247 129L248 130L247 129M82 130L83 131L82 130M241 130L242 131L241 130z"/>
<path style="fill:#e8ded7; stroke:none;" d="M246 130L247 131L246 130z"/>
<path style="fill:#a69771; stroke:none;" d="M83 131L84 132L83 131M88 131L89 132L88 131z"/>
<path style="fill:#e8ded7; stroke:none;" d="M245 131L246 132L245 131z"/>
<path style="fill:#a69771; stroke:none;" d="M84 132L85 133L84 132M238 132L239 133L238 132z"/>
<path style="fill:#e8ded7; stroke:none;" d="M244 132L245 133L244 132z"/>
<path style="fill:#a69771; stroke:none;" d="M85 133L86 134L85 133M91 133L92 134L91 133z"/>
<path style="fill:#e8ded7; stroke:none;" d="M86 134L87 135L86 134z"/>
<path style="fill:#a69771; stroke:none;" d="M235 134L236 135L235 134M241 134L242 135L241 134M88 135L89 136L88 135M94 135L95 136L94 135z"/>
<path style="fill:#e8ded7; stroke:none;" d="M240 135L241 136L240 135z"/>
<path style="fill:#a69771; stroke:none;" d="M89 136L90 137L89 136M232 136L233 137L232 136M238 136L239 137L238 136M97 137L98 138L97 137M230 137L231 138L230 137z"/>
<path style="fill:#e8ded7; stroke:none;" d="M237 137L238 138L237 137M92 138L93 139L92 138z"/>
<path style="fill:#a69771; stroke:none;" d="M99 138L100 139L99 138M228 138L229 139L228 138M235 138L236 139L235 138M94 139L95 140L94 139M101 139L102 140L101 139M226 139L227 140L226 139z"/>
<path style="fill:#e8ded7; stroke:none;" d="M95 140C96.4615 156.227 116.261 156.82 129 158.575C154.813 162.13 182.722 163.504 208 156.29C218.868 153.189 229.845 149.833 235 139C221.431 142.907 209.177 149.182 195 151.565C158.96 157.622 129.107 149.75 95 140z"/>
<path style="fill:#a69771; stroke:none;" d="M97 140L98 141L97 140M103 140L104 141L103 140M223 140L224 141L223 140M99 141L100 142L99 141M105 141L106 142L105 141M221 141L222 142L221 141M228 141L229 142L228 141M101 142L102 143L101 142M108 142L109 143L108 142M218 142L219 143L218 142M226 142L227 143L226 142M104 143L105 144L104 143M110 143L111 144L110 143M215 143L216 144L215 143M223 143L224 144L223 143M106 144L107 145L106 144M113.667 144.333L114.333 144.667L113.667 144.333M213 144L214 145L213 144M221 144L222 145L221 144M109 145L110 146L109 145M117 145L118 146L117 145M210 145L211 146L210 145M218 145L219 146L218 145M112 146L113 147L112 146M121.667 146.333L122.333 146.667L121.667 146.333M206.667 146.333L207.333 146.667L206.667 146.333M215 146L216 147L215 146M115.667 147.333L116.333 147.667L115.667 147.333M127.667 147.333L128.333 147.667L127.667 147.333M199 147L199 148L203 148L199 147M212 147L213 148L212 147M119 148L120 149L119 148M131 148L131 149L146 150L131 148M191 148L191 149L196 149L191 148M208 148L209 149L208 148M123 149L124 150L123 149M176 149L176 150L184 150L176 149M204 149L205 150L204 149M127.667 150.333L128.333 150.667L127.667 150.333M154 150L154 151L168 151L154 150M199.667 150.333L200.333 150.667L199.667 150.333M132.667 151.333L133.333 151.667L132.667 151.333M194.667 151.333L195.333 151.667L194.667 151.333M139.667 152.333L140.333 152.667L139.667 152.333M175 152L175 153L189 153L175 152M149 153L149 154L166 154L149 153z"/>
<path style="fill:#f5d883; stroke:none;" d="M166 153L167 154L166 153z"/>
</svg>
